<?xml version="1.0" standalone="no"?>
<!DOCTYPE svg PUBLIC "-//W3C//DTD SVG 20010904//EN"
 "http://www.w3.org/TR/2001/REC-SVG-20010904/DTD/svg10.dtd">
<svg version="1.0" xmlns="http://www.w3.org/2000/svg"
 width="540.000000pt" height="540.000000pt" viewBox="0 0 540.000000 540.000000"
 preserveAspectRatio="xMidYMid meet">

<g transform="translate(0.000000,540.000000) scale(0.100000,-0.100000)"
fill="#000000" stroke="none">
<path d="M1856 5182 c-5 -8 -346 -1198 -346 -1207 0 -3 -58 -34 -128 -69 -638
-320 -1038 -913 -1093 -1623 -41 -525 154 -1073 523 -1469 285 -306 684 -520
1103 -593 90 -16 1005 -119 1120 -126 193 -13 465 26 679 96 571 187 1020 619
1230 1181 83 222 118 427 119 678 0 191 -16 319 -59 486 -69 266 -213 552
-376 745 -103 123 -98 112 -98 213 0 364 -305 686 -593 626 -75 -15 -161 -74
-210 -144 l-39 -54 -56 14 c-32 7 -94 21 -139 30 -46 9 -90 22 -98 28 -9 6
-80 239 -175 570 -88 308 -164 564 -170 570 -13 13 -17 4 -166 -524 -75 -261
-140 -490 -147 -507 -13 -39 -21 -40 -202 -19 -66 8 -170 17 -232 21 l-112 8
-15 46 c-8 25 -70 237 -136 471 -67 234 -130 455 -141 493 -18 62 -30 79 -43
59z m64 -1638 c39 -34 76 -105 102 -202 18 -64 21 -107 22 -257 1 -156 -2
-192 -22 -269 -52 -207 -136 -277 -223 -187 -131 139 -153 625 -38 842 33 60
75 99 111 99 9 0 31 -12 48 -26z m1188 -7 c36 -33 70 -107 94 -205 29 -113 32
-388 6 -493 -41 -164 -96 -249 -160 -249 -66 0 -130 102 -163 259 -55 272 2
623 115 699 40 26 71 23 108 -11z"/>
</g>
</svg>
